<?xml version="1.0" encoding="utf-8"?><!-- Generator: Adobe Illustrator 19.0.1, SVG Export Plug-In . SVG Version: 6.00 Build 0)  --><svg version="1.1" id="Layer_1" xmlns="http://www.w3.org/2000/svg" xmlns:xlink="http://www.w3.org/1999/xlink" x="0px" y="0px" viewBox="-383 227.5 192.5 106.5" style="enable-background:new -383 227.5 192.5 106.5;" xml:space="preserve"><path d="M-202.8,334c2-1.6,3.1-2.4,4.1-3.3c7.3-6.3,10-14.5,7-23.4c-1.8-5.6-1.8-10.6-0.7-16c0.6-2.9,0.9-5.9,1.6-10
	c-4.4,3.3-7.9,6.2-11.6,8.8c-1.2,0.9-3.1,1.9-4.4,1.6c-7.6-1.8-14.1,0.3-20.4,5.1c-1.1-0.7-2.2-1.3-3.1-2.2
	c-15.8-16.1-34.7-19.5-56-13.5c-3.2,0.9-6.7,0.7-10.4,0c9.9-6.1,21-9.1,31.9-13.9c-2.7-1.3-4.9-2.4-7.5-3.7c2-3.5,4-6.7,6.3-10.7
	c-3,0.5-5.3,0.8-7.8,1.2c-0.9-3-1.6-5.8-2.4-8.3c-3,7.3-4.4,16.1-9.4,21.5c-5,5.4-13.6,7.6-21,11.3c2.1,2.7,4.6,5.8,7,8.8
	c-0.5,0.5-1.1,0.9-1.6,1.4c-3.7-3-7.5-6.1-11.7-9.4c14.9-12.2,26.7-26.1,29.5-46.4c-2.1,1-3.7,1.7-5.6,2.6c-1.7-2.5-3.3-4.8-5.5-8
	c-0.5,4.2-1,7.5-1.5,11.4c-1.3-0.4-2.4-0.8-4.5-1.4c9.3,21.5-7.9,29.9-20,42c3.5,3.2,6.7,6.4,10.3,9.2c2.7,2.2,2.5,4.1,0.9,6.8
	c-3.6,6-8.7,9.8-15.6,10.3c-5.8,0.4-11.6,0-17.4,0c-10.1,0-20.3,0-31.3,0c2.3,3,4.1,5.5,6.4,8.6c-5.3,0.3-10,0.5-15.7,0.8
	c13.1,10.8,28.2,10.9,43.1,12.3c-1.7,4.8-4.3,6.6-9.1,6.4"></path></svg>